<?xml version="1.0" standalone="no"?>
<!DOCTYPE svg PUBLIC "-//W3C//DTD SVG 1.1//EN" "http://www.w3.org/Graphics/SVG/1.1/DTD/svg11.dtd" >
<svg xmlns="http://www.w3.org/2000/svg">
<metadata>Generated by IcoMoon</metadata>
<defs>
<font id="icomoon" horiz-adv-x="1024">
<font-face units-per-em="1024" ascent="960" descent="-64" />
<missing-glyph horiz-adv-x="1024" />
<glyph unicode="&#x20;" horiz-adv-x="512" d="" />
<glyph unicode="&#xe900;" glyph-name="icone-aventura" d="M928.427 758.613c-3.413 3.413-112.64 54.613-235.52 54.613-68.267 0-126.293-20.48-184.32-37.547-51.2-17.067-95.573-30.72-143.36-30.72-133.12-3.413-252.587 37.547-252.587 40.96-6.827 3.413-13.653 0-17.067-3.413-6.827-3.413-10.24-10.24-10.24-17.067v-539.307c0-3.413 0-6.827 3.413-10.24s75.093-105.813 249.173-105.813c81.92 0 139.947 20.48 194.56 40.96s109.227 40.96 194.56 40.96c129.707 0 184.32-44.373 184.32-44.373 6.827-6.827 13.653-6.827 20.48-3.413s10.24 10.24 10.24 17.067v580.267c-3.413 6.827-6.827 13.653-13.653 17.067zM897.707 198.827c-34.133 17.067-92.16 34.133-177.493 34.133-92.16 0-150.187-20.48-208.213-44.373-51.2-20.48-102.4-37.547-177.493-37.547-129.707 0-194.56 64.853-211.627 81.92v505.173c44.373-13.653 126.293-34.133 218.453-34.133 10.24 0 17.067 0 23.893 0 51.2 0 102.4 17.067 153.6 34.133 54.613 17.067 112.64 37.547 174.080 37.547 92.16 0 177.493-34.133 208.213-44.373v-532.48zM372.053 557.227c0 47.787-37.547 85.333-85.333 85.333s-85.333-37.547-85.333-85.333 37.547-85.333 85.333-85.333 85.333 37.547 85.333 85.333zM286.72 512.853c-23.893 0-44.373 20.48-44.373 44.373s20.48 44.373 44.373 44.373 44.373-20.48 44.373-44.373-20.48-44.373-44.373-44.373zM283.307 420.693c-3.413 10.24-13.653 17.067-23.893 13.653s-17.067-13.653-13.653-23.893c0 0 10.24-27.307 30.72-54.613 3.413-3.413 10.24-6.827 17.067-6.827 3.413 0 10.24 0 13.653 3.413 10.24 6.827 10.24 20.48 3.413 27.307-20.48 20.48-27.307 40.96-27.307 40.96zM423.253 359.253c-13.653-3.413-30.72-6.827-47.787-10.24-3.413 0-10.24 0-13.653 0-10.24 0-20.48-6.827-20.48-17.067s6.827-20.48 17.067-20.48c3.413 0 6.827 0 10.24 0s6.827 0 10.24 0c20.48 3.413 40.96 6.827 58.027 10.24 10.24 3.413 17.067 13.653 13.653 27.307-3.413 6.827-17.067 13.653-27.307 10.24zM559.787 389.973c-20.48 0-40.96 0-58.027-3.413-10.24-3.413-17.067-13.653-17.067-23.893 3.413-10.24 10.24-17.067 20.48-17.067 0 0 3.413 0 3.413 0 13.653 3.413 30.72 3.413 51.2 3.413 10.24 0 20.48 10.24 20.48 20.48s-6.827 20.48-20.48 20.48zM686.080 451.413c-6.827 6.827-20.48 6.827-27.307 0s-6.827-20.48 0-27.307l30.72-30.72-30.72-30.72c-6.827-6.827-6.827-20.48 0-27.307 3.413-3.413 10.24-6.827 13.653-6.827 6.827 0 10.24 3.413 13.653 6.827l30.72 30.72 47.787-47.787c3.413-3.413 10.24-6.827 13.653-6.827 6.827 0 10.24 3.413 13.653 6.827 6.827 6.827 6.827 20.48 0 27.307l-47.787 47.787 40.96 40.96c6.827 6.827 6.827 20.48 0 27.307s-20.48 6.827-27.307 0l-40.96-44.373-30.72 34.133z" />
<glyph unicode="&#xe901;" glyph-name="icone-cultura" d="M839.68 608.427l-324.267 201.387c-6.827 3.413-13.653 3.413-20.48 0l-314.027-201.387c-10.24-3.413-13.653-13.653-10.24-20.48 3.413-10.24 10.24-13.653 20.48-13.653h638.293c10.24 0 17.067 6.827 20.48 13.653 0 6.827-3.413 17.067-10.24 20.48zM259.413 611.84l245.76 157.013 252.587-157.013h-498.347zM709.973 222.72c-3.413 0-6.827-3.413-6.827-6.827v-23.893c0-3.413 3.413-6.827 6.827-6.827h81.92c3.413 0 6.827 3.413 6.827 6.827v23.893c0 3.413-3.413 6.827-6.827 6.827h-10.24v266.24h10.24c3.413 0 6.827 3.413 6.827 6.827v23.893c0 3.413-3.413 6.827-6.827 6.827h-81.92c-3.413 0-6.827-3.413-6.827-6.827v-23.893c0-3.413 3.413-6.827 6.827-6.827h6.827v-266.24h-6.827zM552.96 222.72c-3.413 0-6.827-3.413-6.827-6.827v-23.893c0-3.413 3.413-6.827 6.827-6.827h81.92c3.413 0 6.827 3.413 6.827 6.827v23.893c0 3.413-3.413 6.827-6.827 6.827h-10.24v266.24h10.24c3.413 0 6.827 3.413 6.827 6.827v23.893c0 3.413-3.413 6.827-6.827 6.827h-81.92c-3.413 0-6.827-3.413-6.827-6.827v-23.893c0-3.413 3.413-6.827 6.827-6.827h10.24v-266.24h-10.24zM395.947 222.72c-3.413 0-6.827-3.413-6.827-6.827v-23.893c0-3.413 3.413-6.827 6.827-6.827h81.92c3.413 0 6.827 3.413 6.827 6.827v23.893c0 3.413-3.413 6.827-6.827 6.827h-10.24v266.24h10.24c3.413 0 6.827 3.413 6.827 6.827v23.893c0 3.413-3.413 6.827-6.827 6.827h-81.92c-3.413 0-6.827-3.413-6.827-6.827v-23.893c0-3.413 3.413-6.827 6.827-6.827h10.24v-266.24h-10.24zM242.347 222.72c-3.413 0-6.827-3.413-6.827-6.827v-23.893c0-3.413 3.413-6.827 6.827-6.827h81.92c3.413 0 6.827 3.413 6.827 6.827v23.893c0 3.413-3.413 6.827-6.827 6.827h-10.24v266.24h10.24c3.413 0 6.827 3.413 6.827 6.827v23.893c0 3.413-3.413 6.827-6.827 6.827h-81.92c-3.413 0-6.827-3.413-6.827-6.827v-23.893c0-3.413 3.413-6.827 6.827-6.827h10.24v-266.24h-10.24zM839.68 140.8h-662.187c-3.413 0-6.827-3.413-6.827-10.24v-23.893c0-3.413 3.413-6.827 6.827-6.827h662.187c3.413 0 6.827 3.413 6.827 6.827v27.307c0 3.413-3.413 6.827-6.827 6.827z" />
<glyph unicode="&#xe902;" glyph-name="icone-night" d="M286.72 546.987c-64.853 0-116.053 51.2-116.053 116.053s54.613 119.467 119.467 119.467c47.787 0 88.747-27.307 109.227-68.267 3.413-10.24 17.067-13.653 27.307-10.24s13.653 17.067 10.24 27.307c-30.72 54.613-88.747 92.16-150.187 92.16-85.333 0-157.013-71.68-157.013-160.427s71.68-157.013 157.013-157.013c10.24 0 20.48 10.24 20.48 20.48s-10.24 20.48-20.48 20.48zM866.987 823.467h-119.467c-6.827 0-10.24-3.413-17.067-6.827l-109.227-133.12h-337.92c-10.24-3.413-17.067-6.827-20.48-13.653s0-17.067 3.413-20.48l245.76-331.093v-174.080h-119.467c-10.24 0-20.48-10.24-20.48-20.48s10.24-20.48 20.48-20.48h256c10.24 0 20.48 10.24 20.48 20.48s-10.24 20.48-20.48 20.48h-98.987v174.080l245.76 331.093c3.413 6.827 6.827 13.653 3.413 20.48s-10.24 10.24-17.067 10.24h-105.813l85.333 102.4h109.227c10.24 0 20.48 10.24 20.48 20.48-6.827 10.24-13.653 20.48-23.893 20.48zM665.6 540.16h-225.28c-3.413 0-3.413 0-6.827-3.413 0-3.413 0-3.413 0-6.827l112.64-150.187-13.653-20.48-211.627 279.893h416.427l-71.68-98.987z" />
<glyph unicode="&#xe903;" glyph-name="icone-romantico" d="M399.36 325.12c-6.827-6.827-17.067-13.653-27.307-20.48-307.2 153.6-293.547 307.2-293.547 310.613 0 0 0 3.413 0 3.413s0 105.813 88.747 133.12c17.067 3.413 37.547 3.413 51.2 3.413 58.027 0 92.16-30.72 92.16-34.133v0c3.413-3.413 10.24-6.827 17.067-6.827s10.24 3.413 13.653 10.24c0 0 40.96 61.44 136.533 54.613 61.44-3.413 92.16-54.613 105.813-85.333 17.067-3.413 30.72-3.413 44.373-10.24-13.653 47.787-54.613 126.293-146.773 133.12-85.333 6.827-136.533-30.72-157.013-54.613-20.48 17.067-54.613 34.133-105.813 34.133-20.48 0-40.96-3.413-61.44-10.24-92.16-27.307-116.053-122.88-116.053-170.667 0-20.48-6.827-187.733 320.853-351.573 3.413 0 6.827-3.413 10.24-3.413 0 0 0 0 0 0h10.24c3.413 0 10.24 0 13.653 3.413 10.24 6.827 17.067 13.653 23.893 20.48-6.827 17.067-13.653 30.72-20.48 40.96zM617.813 99.84c-3.413 0-3.413 0-6.827 0l-10.24 6.827c-3.413 0-6.827 3.413-6.827 6.827-256 259.413-197.973 419.84-191.147 436.907 3.413 13.653 47.787 126.293 167.253 122.88 85.333-3.413 133.12-47.787 150.187-75.093 17.067 10.24 47.787 20.48 81.92 20.48 27.307 0 54.613-6.827 85.333-17.067 88.747-37.547 102.4-136.533 95.573-184.32 0-20.48-17.067-187.733-358.4-314.027-3.413-3.413-6.827-3.413-6.827-3.413zM559.787 628.907c-88.747 0-119.467-95.573-119.467-95.573s0-3.413 0-3.413c0 0-61.44-143.36 177.493-385.707 320.853 119.467 324.267 269.653 324.267 273.067 0 0 0 3.413 0 3.413 0 3.413 13.653 105.813-71.68 139.947-23.893 10.24-44.373 13.653-68.267 13.653-47.787 0-75.093-23.893-78.507-23.893-3.413-3.413-10.24-6.827-17.067-3.413-6.827 0-10.24 6.827-13.653 10.24s-34.133 68.267-126.293 71.68c-3.413 0-6.827 0-6.827 0z" />
<glyph unicode="&#xe904;" glyph-name="icone-top-ambiente" d="M823.979 427.52c4.096 14.336 10.24 45.739-4.096 71.68-10.923 19.797-31.403 32.768-60.075 37.547-0.683 0-0.683 0-1.365 0l-84.651 5.461 27.989 61.44c3.413 6.827 32.768 68.267-15.701 137.216-0.683 1.365-24.576 31.403-58.709 31.403-6.827 0-14.336-1.365-20.48-4.096-6.144-2.048-35.499-15.019-32.768-62.805 2.048-32.085-9.557-43.691-9.557-43.691-0.683-0.683-1.365-1.365-2.048-2.731l-53.248-74.411c-10.24-7.509-51.2-40.277-64.853-61.44-4.096-7.509-6.827-15.019-9.557-22.528-6.144-17.749-10.923-31.403-38.912-40.277-5.461-1.365-9.557-6.827-10.24-12.288-0.683-6.144-15.701-157.013 36.181-285.355 2.048-4.096 5.461-7.509 10.24-8.875 4.096-1.365 107.861-25.941 161.792-27.989 6.827 0 15.701-0.683 24.576-2.048 14.336-1.365 30.037-2.731 46.421-2.731 0 0 0 0 0 0 26.624 0 106.496 0 122.197 93.525 12.288 12.288 45.739 50.517 31.403 98.987 17.067 26.624 33.451 73.728 5.461 114.005zM789.163 312.149c16.384-40.96-23.211-76.459-24.576-77.824-2.731-2.048-4.779-5.461-4.779-8.875-7.509-51.2-35.499-73.728-94.208-73.728-15.019 0-30.037 1.365-43.691 2.731-9.557 0.683-18.432 1.365-26.624 2.048-43.008 1.365-124.245 19.115-148.821 25.259-38.912 102.4-34.133 221.867-32.085 255.317 34.133 13.653 42.325 37.547 48.469 55.296 2.048 6.144 4.096 11.605 6.827 16.384 9.557 15.701 45.739 45.056 58.709 55.296 1.365 0.683 2.048 2.048 3.413 3.413l53.248 75.093c5.461 5.461 20.48 25.259 17.749 65.536-1.365 27.307 11.605 32.768 12.288 33.451 0.683 0 0.683 0 1.365 0.683 3.413 1.365 6.827 2.048 10.24 2.048 19.115 0 34.816-19.797 34.816-19.797s0 0 0 0c39.595-55.979 14.336-104.448 13.653-106.496 0 0 0-0.683-0.683-0.683l-37.547-80.555c-2.048-4.096-2.048-9.557 0.683-13.653s6.827-6.827 11.605-6.827l105.131-7.509c19.115-3.413 32.085-10.923 38.912-23.211 12.971-22.528 0-54.613 0-54.613-2.048-4.779-1.365-10.923 2.731-15.019 32.768-38.229-4.096-86.699-5.461-88.747-2.731-4.096-3.413-10.24-1.365-15.019zM362.496 436.395c1.365 12.288-8.192 23.211-20.48 23.893-31.403 1.365-84.651 3.413-107.179 2.731-33.451-1.365-47.104-9.557-49.835-72.363s12.288-138.581 31.403-212.309c19.115-73.728 75.776-51.883 75.776-51.883l87.381 27.307c11.605 3.413 17.749 15.701 14.336 27.307-38.912 118.101-35.499 213.675-31.403 255.317zM343.381 169.472c-11.605 0-21.163 9.557-21.163 21.163s9.557 21.163 21.163 21.163c11.605 0 21.163-9.557 21.163-21.163s-9.557-21.163-21.163-21.163z" />
<glyph unicode="&#xe905;" glyph-name="icone-top-comodidades" d="M600.064 574.976c-17.749 7.509-36.864 11.605-55.979 12.288-65.536 3.413-126.976-31.403-159.061-88.064-2.731 6.144-5.461 11.605-8.875 17.067-43.008 77.824-140.629 105.813-218.453 62.805-77.141-42.325-105.131-139.947-62.123-217.771 57.344-104.448 192.512-193.877 266.923-226.645 8.875-35.499 20.48-59.392 32.768-64.171 2.048-0.683 4.779-1.365 8.192-1.365 47.104-2.731 231.424 132.437 291.499 281.941 36.181 87.381-6.827 188.416-94.891 223.915zM673.109 359.253c-58.709-145.408-232.789-268.971-268.971-266.923-21.163 14.336-64.853 236.203-6.827 378.88 23.893 58.709 82.603 96.256 146.091 92.843 16.384-0.683 32.768-4.779 48.469-10.923 75.093-31.403 111.957-118.101 81.237-193.877zM559.787 474.624c-6.827 2.731-13.653 4.096-20.48 4.779-27.307 1.365-52.565-15.019-62.805-39.595-6.144-15.701-6.144-33.451 0-49.152 6.827-15.701 19.115-27.989 34.816-34.133 6.827-2.731 13.653-4.096 20.48-4.779 26.624-1.365 52.565 15.019 62.805 39.595 13.653 32.085-2.731 70.315-34.816 83.285zM572.757 399.531c-6.144-15.701-22.528-25.941-39.595-25.259-4.096 0-8.875 1.365-12.971 2.731-9.557 4.096-17.749 11.605-21.845 21.845s-4.779 21.163-0.683 30.72c6.144 15.701 22.528 25.941 39.595 25.259 4.096 0 8.875-1.365 12.971-2.731 20.48-8.192 30.72-31.403 22.528-52.565zM844.459 676.693v41.643c0 6.144-4.779 10.923-10.923 10.923h-88.064v88.064c0 5.461-4.779 10.24-10.24 10.24h-42.325c-5.461 0-10.24-4.779-10.24-10.24v-88.064h-88.064c-6.144 0-10.923-4.779-10.923-10.923v-41.643c0-6.144 4.779-10.923 10.923-10.923h88.064v-88.064c0-5.461 4.779-10.24 10.24-10.24h42.325c5.461 0 10.24 4.779 10.24 10.24v88.747h88.064c6.144 0 10.923 4.779 10.923 10.24zM941.397 533.333h-58.709v59.392c0 4.096-3.413 6.827-6.827 6.827h-27.989c-4.096 0-6.827-3.413-6.827-6.827v-59.392h-58.709c-4.096 0-7.509-3.413-7.509-7.509v-27.989c0-4.096 3.413-7.509 7.509-7.509h58.709v-59.392c0-4.096 3.413-6.827 6.827-6.827h27.989c4.096 0 6.827 3.413 6.827 6.827v59.392h58.709c4.096 0 7.509 3.413 7.509 7.509v27.989c-0.683 4.779-3.413 7.509-7.509 7.509z" />
<glyph unicode="&#xe906;" glyph-name="icone-top-custo" d="M501.76 706.731c-19.797 7.509-25.259 12.288-25.259 21.163 0 6.827 5.461 15.019 19.797 15.019 12.971 0 22.528-4.779 23.211-5.461 1.365-0.683 2.048-0.683 3.413-0.683 2.731 0 5.461 2.048 6.144 4.096l3.413 8.875c1.365 3.413-0.683 6.144-2.731 7.509-8.192 3.413-23.211 6.144-23.893 6.144 0 0-1.365 0-1.365 1.365v12.971c0 4.096-3.413 7.509-7.509 7.509h-6.144c-4.096 0-7.509-3.413-7.509-7.509v-13.653c0-1.365-1.365-1.365-1.365-1.365-19.797-4.779-32.085-19.115-32.085-36.864 0-22.528 18.432-32.768 38.912-40.277 16.384-6.144 22.528-12.971 22.528-21.845 0-10.24-9.557-17.067-22.528-17.067-11.605 0-26.624 7.509-26.624 7.509-0.683 0.683-2.048 0.683-3.413 0.683-2.731 0-5.461-2.048-6.827-4.779l-3.413-8.875c-1.365-3.413 0.683-6.144 2.731-7.509 9.557-4.779 27.989-7.509 28.672-8.192 0 0 1.365-0.683 1.365-1.365v-13.653c0-4.096 3.413-7.509 7.509-7.509h6.827c4.096 0 7.509 3.413 7.509 7.509v14.336c0 1.365 0.683 1.365 1.365 1.365 21.163 4.779 33.451 19.797 33.451 38.912s-10.923 31.403-36.181 41.643v0zM493.568 866.475c-95.573 0-172.715-77.824-172.715-172.715 0-95.573 77.141-172.715 172.715-172.715s172.715 77.141 172.715 172.715c0 94.891-77.824 172.715-172.715 172.715v0zM493.568 549.717c-79.872 0-144.043 64.853-144.043 144.043 0 79.872 64.853 144.043 144.043 144.043 79.872 0 144.043-64.853 144.043-144.043 0-79.872-64.853-144.043-144.043-144.043v0zM610.304 30.208c-16.384 0-32.768 0-49.152 0-8.192 0-12.971 2.048-17.067 10.24-12.971 28.672-13.653 28.672-45.056 25.941-19.797-2.048-39.595 0-59.392 2.048-8.875 1.365-13.653-0.683-15.019-10.24-6.144-34.816-4.096-27.307-34.816-27.989-25.941-0.683-51.883 0-78.507 0-12.288 0-12.971 1.365-10.923 13.653 3.413 17.749 6.144 36.181 9.557 53.931 1.365 8.192-0.683 14.336-6.144 21.163-32.768 38.912-56.661 81.92-63.488 133.12-6.827 54.613 7.509 103.765 43.691 145.408 47.104 54.613 108.544 78.507 178.176 86.699 53.248 6.144 104.448-0.683 153.6-21.845 14.336-6.144 27.989-14.336 40.277-24.576 6.144-5.461 10.923-5.461 17.749-0.683 40.96 27.307 83.285 29.355 127.659 7.509 0.683 0 1.365-0.683 2.048-1.365 4.779-2.731 11.605-4.779 11.605-10.24 0-6.144-8.192-6.144-12.971-6.827-17.749-4.779-34.133-11.605-47.104-25.259-20.48-21.845-18.432-36.181 5.461-53.248 19.797-13.653 41.643-23.211 62.805-33.451 4.779-2.048 8.875-4.096 13.653-6.144 17.749-8.192 18.432-8.192 16.384-27.989-2.048-26.624-7.509-53.248-15.701-78.507-2.048-6.144-4.096-10.24-11.605-10.923-8.192-0.683-15.019-6.144-21.845-10.24-35.499-20.48-68.949-42.325-102.4-65.536-10.923-7.509-21.845-13.653-34.816-17.749-8.192-2.731-9.557-6.827-7.509-14.336 3.413-12.971 6.144-25.941 8.875-38.912s2.048-13.653-10.923-13.653c-13.653 0-30.037 0-47.104 0zM497.664 410.453c27.989 2.048 54.613-2.731 81.92-9.557 6.827-2.048 14.336-3.413 16.384 6.144 2.048 8.192-2.048 12.288-10.24 15.019-58.709 17.749-116.736 17.067-175.445 0-7.509-2.048-12.288-6.144-10.24-15.019 2.731-9.557 9.557-7.509 16.384-6.144 27.307 6.827 53.931 10.923 81.237 9.557zM749.568 292.352c8.192 0 15.701 6.827 15.701 13.653 0 8.192-7.509 15.701-15.701 15.019-9.557-0.683-13.653-6.144-12.971-15.019 0-8.875 5.461-12.971 12.971-13.653zM217.771 369.493c-4.779-12.288-2.731-23.211 1.365-33.451 3.413-8.192 8.192-15.701 12.288-23.211 1.365-2.731 3.413-6.144 4.096-9.557 0.683-4.096 1.365-9.557-3.413-10.923-3.413-1.365-5.461 3.413-7.509 6.144-10.923 16.384-21.845 33.451-23.211 54.613-0.683 9.557 0.683 19.115 6.144 27.307 2.731 4.779 6.827 8.192 12.971 7.509s8.875-5.461 10.923-10.923c2.731-8.875 1.365-17.067-2.731-25.259-0.683-2.048-2.048-4.779-4.779-4.096-3.413 0.683-3.413 3.413-4.096 6.144-1.365 4.096 3.413 8.875-2.048 15.701zM167.936 399.531c0.683 3.413-3.413 10.24 4.096 11.605 8.192 1.365 7.509-4.779 8.192-10.24 1.365-15.019 4.779-29.355 14.336-41.643 0.683-0.683 0.683-1.365 1.365-2.048 1.365-4.096 4.779-9.557 0-12.288-3.413-2.048-7.509 2.731-10.24 6.144-9.557 13.653-17.067 29.355-17.749 48.469z" />
<glyph unicode="&#xe907;" glyph-name="icone-top-estrutura" d="M237.568 565.419c2.731-4.096 8.192-4.779 11.605-2.048l258.731 183.637c2.731 2.048 6.827 2.048 10.24 0l258.048-183.637c4.096-2.731 9.557-2.048 12.288 2.048l15.019 21.163c2.731 4.096 2.048 8.875-2.048 11.605l-122.88 88.064 0.683 96.256c0 4.779-4.096 8.875-8.875 8.875h-38.229c-4.779 0-8.875-4.096-8.875-8.875v-61.44l-105.131 79.189c-2.731 2.048-6.827 2.048-10.24 0l-283.307-202.752c-4.096-2.731-4.779-8.192-2.048-11.605l15.019-20.48zM863.573 343.552c-1.365 5.461-4.096 10.24-8.875 12.971l-95.573 64.171v120.149c0 6.827-3.413 12.971-8.875 17.067l-225.28 163.157c-6.827 4.779-17.067 5.461-23.893 0l-223.915-156.331c-5.461-4.096-8.875-10.24-8.875-17.067v-125.611l-98.304-64.171c-4.779-3.413-8.192-7.509-8.875-13.653-1.365-5.461 0-10.923 3.413-15.701l13.653-20.48c4.096-5.461 10.24-8.875 17.067-8.875 4.096 0 7.509 1.365 10.923 3.413v-144.043h-4.779c-11.605 0-20.48-9.557-20.48-20.48v-23.211c0-11.605 9.557-20.48 20.48-20.48h274.432v184.32h79.872v-184.32h270.336c11.605 0 20.48 9.557 20.48 20.48v23.211c0 11.605-9.557 20.48-20.48 20.48h-6.144v145.408c3.413-2.048 6.827-3.413 10.923-3.413 6.827 0 13.653 3.413 17.067 8.875l12.288 17.749c3.413 5.461 4.096 10.923 3.413 16.384zM830.123 326.485l-34.133 23.893v-215.723h27.307v-16.384h-243.712v184.32h-128.341v-184.32h-246.443v16.384h25.259v211.627l-34.133-21.163-10.24 14.336 106.496 69.632v136.533l220.501 154.283 222.549-161.109v-131.755l103.083-68.267-8.192-12.288zM341.333 536.064h73.045v-96.256h-73.045v96.256zM281.259 293.717h120.832v-96.256h-120.832v96.256zM626.005 293.717h120.832v-96.256h-120.832v96.256zM478.549 536.064h73.045v-96.256h-73.045v96.256zM613.035 536.064h73.045v-96.256h-73.045v96.256z" />
<glyph unicode="&#xe908;" glyph-name="icone-top-limpeza" d="M343.381 399.531c-4.096 2.731-10.24 2.048-13.653-1.365l-129.024-145.408c0 0-23.893-23.211 8.875-48.469 2.048-1.365 5.461-1.365 6.827 0.683l74.411 84.651-53.931-96.256c-1.365-2.048-0.683-4.779 1.365-6.827l9.557-8.192c2.048-2.048 5.461-1.365 7.509 0.683l83.285 103.083-55.979-122.197c-1.365-2.048 0-5.461 2.048-6.827l6.144-4.096c2.048-1.365 5.461-0.683 6.827 1.365l53.931 79.189-40.277-88.747c-0.683-2.048 0-4.779 1.365-6.144l6.144-4.096c2.048-1.365 4.779-1.365 6.827 0.683l90.112 96.256-64.853-114.005c-1.365-2.048-0.683-5.461 1.365-6.827l13.653-10.24c2.048-2.048 5.461-1.365 7.509 1.365l58.709 88.747-40.96-101.717c-0.683-2.048 0-4.779 2.048-6.144l10.923-7.509c2.048-1.365 4.779-1.365 6.827 0.683l60.075 68.949-45.739-79.189c-1.365-2.048-0.683-4.779 1.365-6.827 8.875-7.509 33.451-23.211 47.787 5.461 15.701 30.72 73.045 143.36 89.429 174.763 2.048 4.779 0.683 10.24-3.413 12.971l-217.088 151.552zM830.805 823.467c-2.048 10.24-8.875 19.115-17.749 24.576-6.144 3.413-12.971 5.461-20.48 5.461-12.288 0-23.893-6.144-31.403-15.701l-262.827-357.717c0 0 0-0.683-0.683-0.683-13.653 4.096-27.989 6.827-40.96 6.827-66.219 0-101.717-52.565-103.765-54.613-4.096-6.144-2.731-14.336 3.413-19.115l214.357-146.773c2.048-1.365 4.779-2.048 7.509-2.048 0.683 0 2.048 0 2.731 0 3.413 0.683 6.827 2.731 8.875 6.144 1.365 2.048 30.72 47.104 19.797 100.352-4.096 20.48-14.336 39.595-29.355 56.661l244.395 367.275c6.827 8.192 8.192 18.432 6.144 29.355zM574.123 297.131l-189.781 129.707c12.288 12.971 36.864 32.085 72.363 32.085 22.528 0 46.421-8.192 71.68-23.893 7.509-4.779 13.653-9.557 19.797-14.336 0.683-0.683 1.365-1.365 2.048-2.048 17.749-15.701 28.672-34.133 33.451-53.931 5.461-27.989-2.731-53.248-9.557-67.584zM802.816 808.448l-241.664-361.813c-9.557 10.24-21.845 17.749-36.864 23.211l258.731 351.573c3.413 4.779 10.24 6.144 15.701 3.413 2.731-1.365 4.779-4.096 5.461-7.509s0-6.144-1.365-8.875zM677.888 163.328c0-22.245-18.033-40.277-40.277-40.277s-40.277 18.033-40.277 40.277c0 22.245 18.033 40.277 40.277 40.277s40.277-18.033 40.277-40.277zM722.261 69.803c0-15.458-12.531-27.989-27.989-27.989s-27.989 12.531-27.989 27.989c0 15.458 12.531 27.989 27.989 27.989s27.989-12.531 27.989-27.989zM791.893 127.829c0-10.934-8.864-19.797-19.797-19.797s-19.797 8.864-19.797 19.797c0 10.934 8.864 19.797 19.797 19.797s19.797-8.864 19.797-19.797z" />
<glyph unicode="&#xe909;" glyph-name="icone-top-local" d="M498.347 91.648c-15.019 0-30.037 0-45.056 0-33.451 6.144-66.901 12.288-101.035 18.432-30.037 4.779-32.768 8.192-32.768 38.229 0 57.344 0 115.371 0 172.715 0 38.229 2.048 32.085-30.72 43.008-27.989 9.557-54.613 21.163-80.555 34.133-47.787 24.576-80.555 61.44-94.891 114.688 0 19.115 0 37.547 0 56.661 6.144 15.701 10.24 32.085 19.115 46.421 46.421 76.459 138.581 96.939 216.405 48.469 14.336-8.875 15.019-8.192 18.432 8.192 6.144 30.037 19.115 55.979 39.595 79.189 24.576 27.989 56.661 42.325 91.477 53.248 21.163 0 41.643 0 62.805 0 2.048-0.683 3.413-2.048 5.461-2.731 65.536-18.432 107.179-59.392 124.245-125.611 2.048-6.827 6.144-10.923 12.971-12.288 23.893-6.144 48.469-10.923 73.728-6.144 33.451 6.144 66.901 10.24 99.669 16.384 12.971 2.048 23.893 0.683 33.451-6.827 0-182.272 0-363.861 0-546.133-7.509-6.144-16.384-8.875-25.941-10.24-36.181-6.144-72.363-12.971-108.544-19.115-15.019 0-30.037 0-45.056 0-77.141 21.845-154.965 21.845-232.789-0.683zM669.013 634.368c2.731 41.643-10.923 76.459-40.277 105.131-40.96 40.277-90.112 52.565-144.043 33.451-54.613-19.115-86.699-58.709-93.525-116.736-3.413-29.355 0-58.709 5.461-87.381 17.749-89.429 55.296-169.984 108.544-243.029 11.605-15.701 18.432-15.701 32.085-1.365 32.768 33.451 56.661 73.045 77.141 114.688 29.355 61.44 52.565 125.611 54.613 195.243zM877.227 243.883c0 27.989 0 56.661 0 84.651 0 10.923-3.413 15.701-15.019 11.605-27.989-8.875-55.979-17.749-83.968-26.624-9.557-2.731-13.653-8.192-13.653-18.432 0-51.2 0-102.4 0-153.6 0-11.605 5.461-16.384 17.067-14.336 26.624 4.779 53.931 9.557 80.555 14.336 10.923 2.048 15.701 7.509 15.701 19.115-0.683 28.672-0.683 55.979-0.683 83.285zM877.227 558.592c0 0 0 0 0 0 0 21.163-0.683 43.008 0 64.171 0 12.971-4.779 17.067-17.067 15.019-26.624-4.779-53.931-9.557-80.555-14.336-8.875-1.365-12.288-6.827-12.288-15.701 0-11.605 0-23.893 0-35.499-0.683-43.008-1.365-86.699-2.048-129.707 0-8.192 0-17.749 12.971-11.605 29.355 14.336 58.709 28.672 88.747 43.008 8.192 4.096 10.923 10.923 10.923 19.115-0.683 21.845-0.683 43.691-0.683 65.536zM746.155 213.845c0 0 0 0 0 0 0 24.576 0 48.469 0 73.045 0 11.605-4.779 17.749-17.067 16.384-29.355-4.096-58.027-7.509-87.381-11.605-10.24-1.365-15.019-6.144-15.019-16.384 0-38.912 0-77.141 0-116.053 0-9.557 4.779-14.336 13.653-16.384 29.355-4.779 58.709-10.24 88.064-15.701 12.288-2.048 17.067 2.731 17.067 15.019 0.683 23.893 0.683 47.787 0.683 71.68zM608.939 214.528c0 0 0 0 0 0 0 18.432 0 36.864 0 55.296 0 10.923-3.413 14.336-14.336 10.24-32.085-12.971-64.853-25.259-96.939-37.547-9.557-3.413-14.336-10.24-14.336-20.48 0-27.307 0-54.613 0-81.92 0-11.605 4.779-15.019 15.701-12.971 31.403 6.144 63.488 11.605 95.573 17.067 10.923 2.048 15.019 8.192 14.336 18.432 0 17.067 0 34.133 0 51.883zM748.885 525.824c0 0 0 0 0 0 0.683 19.797 0.683 39.595 0.683 59.392 0 43.691 2.731 33.451-36.181 41.643-12.288 2.731-18.432-1.365-20.48-14.336-2.731-21.845-3.413-44.373-12.288-64.171-13.653-34.133-13.653-67.584-3.413-102.4 10.923-34.816 9.557-36.181 46.421-30.72 21.163 3.413 23.893 5.461 24.576 27.307 1.365 27.307 0.683 55.296 0.683 83.285zM746.837 359.253c0 6.144 0 12.971 0 19.115 0 18.432-3.413 21.163-21.163 19.115-11.605-1.365-22.528-2.048-34.133-4.096-12.971-2.048-19.797 2.731-22.528 15.701-2.731 14.336-6.827 28.672-10.24 43.691-0.683 2.731-1.365 6.144-4.096 7.509s-4.779-1.365-5.461-3.413c-7.509-17.749-19.115-33.451-19.115-53.931 0.683-24.576 0-48.469-0.683-73.045-0.683-19.115 1.365-21.845 21.163-19.115 19.115 2.048 38.229 6.144 57.344 7.509 38.912 2.731 38.912 2.048 38.912 40.96zM877.227 409.771c0 0 0 0 0 0 0 11.605 0 22.528 0 34.133 0 10.923-4.096 12.971-13.653 8.192-17.067-8.192-33.451-19.115-51.2-23.893-45.056-11.605-53.931-40.96-47.787-81.92 2.048-15.019 2.731-17.067 18.432-12.288 21.845 6.827 43.691 13.653 65.536 20.48 29.355 8.875 29.355 8.875 29.355 40.277-0.683 5.461-0.683 10.24-0.683 15.019zM465.579 178.347c0 0 0 0 0 0 0 12.288 0 24.576 0 36.864 0 10.923-4.096 15.019-15.701 12.971-27.307-4.779-54.613-8.192-82.603-12.288-8.875-1.365-12.971-6.144-12.971-15.019 0-14.336 0-28.672 0-43.008 0-9.557 4.779-14.336 13.653-16.384 26.624-4.779 53.931-9.557 80.555-14.336 10.24-2.048 16.384 2.731 16.384 13.653 0.683 12.971 0.683 25.259 0.683 37.547zM468.309 284.16c0 6.827 0 13.653 0 20.48-0.683 17.067-2.048 19.115-19.797 16.384-26.624-4.096-53.931-8.192-80.555-12.288-9.557-1.365-12.971-6.144-12.971-15.019 0-15.701 0-30.72 0-46.421 0-10.923 4.096-15.019 15.019-13.653 21.845 3.413 43.008 5.461 64.853 9.557 33.451 6.144 33.451 6.144 33.451 40.96zM608.939 371.541c-1.365 0.683-2.731 1.365-3.413 1.365-5.461-7.509-10.923-14.336-16.384-21.845-13.653-19.797-28.672-37.547-47.104-53.248-10.24-8.875-21.163-12.288-34.133-5.461-6.827 3.413-12.288 15.019-19.115 10.923-6.144-4.096-2.048-15.701-2.731-23.893 0-2.731 0-4.779 0-7.509-0.683-11.605 4.779-15.019 15.701-10.923 31.403 12.971 63.488 25.941 94.891 38.912 5.461 2.048 11.605 5.461 11.605 12.288 0.683 19.797 0.683 39.595 0.683 59.392zM535.211 572.245c-34.133 0-64.171 27.989-62.805 60.757 1.365 30.72 22.528 61.44 62.123 61.44 33.451 0 61.44-27.307 61.44-60.075 0-34.816-26.624-62.123-60.757-62.123zM498.347 633.685c0-20.48 17.067-37.547 36.864-36.864 19.797 0 37.547 17.749 36.864 37.547 0 19.797-17.067 36.181-37.547 36.181-19.797-0.683-35.499-17.067-36.181-36.864z" />
<glyph unicode="&#xe90a;" glyph-name="icone-top-staff" d="M512 635.051c45.739 0 83.285 37.547 83.285 83.285s-37.547 82.603-83.285 82.603c-45.739 0-83.285-37.547-83.285-83.285s37.547-82.603 83.285-82.603zM512 777.045c32.768 0 59.392-26.624 59.392-59.392s-26.624-59.392-59.392-59.392c-32.768 0-59.392 26.624-59.392 59.392s26.624 59.392 59.392 59.392zM353.621 701.269c0-30.539-24.757-55.296-55.296-55.296s-55.296 24.757-55.296 55.296c0 30.539 24.757 55.296 55.296 55.296s55.296-24.757 55.296-55.296zM650.581 610.475c-8.875 8.875-21.163 13.653-35.499 13.653h-66.219l-36.864-97.621-36.181 98.304h-67.584c-20.48 0-50.517-13.653-50.517-51.2v-174.080c0-3.413 0-21.163 12.288-34.133 8.875-9.557 21.845-14.336 37.547-14.336h7.509v-209.579c1.365-15.701 13.653-46.421 53.931-46.421 21.163 0 34.816 9.557 43.008 21.845 8.192-12.288 21.163-21.845 40.96-21.845 36.864 0 51.2 30.037 53.248 45.739v209.579h7.509c0.683 0 0.683 0 1.365 0 23.211 0 51.2 15.701 51.2 60.757v155.648c0 2.048 0 27.307-15.701 43.691zM642.389 410.453c0-32.768-19.115-36.864-27.307-36.864h-32.768v-230.741c-0.683-4.096-5.461-24.576-29.355-24.576-25.259 0-29.355 31.403-29.355 32.768h-23.893c0-3.413-4.096-32.768-30.72-32.768-25.941 0-29.355 19.115-30.037 23.893v232.107h-31.403c-8.875 0-15.701 2.048-20.48 6.827-6.144 6.827-6.144 17.067-6.144 17.067v174.763c0 25.259 22.528 27.307 26.624 27.307h51.2l52.565-142.677 53.931 142.677h49.835c7.509 0 13.653-2.048 17.749-6.827 7.509-8.192 9.557-22.528 8.875-27.307v-155.648zM326.997 400.213c0 75.776 0 137.216 0 180.907 0 19.115 10.923 28.672 10.923 28.672h-110.592c0 0-38.229 0.683-38.229-38.912s0-138.581 0-138.581 0-35.499 32.768-35.499v-165.205c0 0 0-28.672 34.816-28.672s32.768 24.576 32.768 24.576 3.413-24.576 33.451-24.576 34.133 26.624 34.133 26.624v116.053c0 0-30.037 23.211-30.037 54.613zM780.971 701.269c0-30.539-24.757-55.296-55.296-55.296s-55.296 24.757-55.296 55.296c0 30.539 24.757 55.296 55.296 55.296s55.296-24.757 55.296-55.296zM796.672 610.475h-110.592c0 0 10.923-9.557 10.923-28.672 0-43.691 0-105.131 0-180.907 0-32.085-30.037-54.613-30.037-54.613v-116.053c0 0 4.779-26.624 34.133-26.624s33.451 24.576 33.451 24.576-2.731-24.576 32.768-24.576c34.816 0 34.816 28.672 34.816 28.672v165.205c33.451 0 32.768 35.499 32.768 35.499s0 98.987 0 138.581-38.229 38.912-38.229 38.912z" />
<glyph unicode="&#xf002;" glyph-name="search" horiz-adv-x="951" d="M658.286 475.428q0 105.714-75.143 180.857t-180.857 75.143-180.857-75.143-75.143-180.857 75.143-180.857 180.857-75.143 180.857 75.143 75.143 180.857zM950.857 0q0-29.714-21.714-51.429t-51.429-21.714q-30.857 0-51.429 21.714l-196 195.429q-102.286-70.857-228-70.857-81.714 0-156.286 31.714t-128.571 85.714-85.714 128.571-31.714 156.286 31.714 156.286 85.714 128.571 128.571 85.714 156.286 31.714 156.286-31.714 128.571-85.714 85.714-128.571 31.714-156.286q0-125.714-70.857-228l196-196q21.143-21.143 21.143-51.429z" />
<glyph unicode="&#xf003;" glyph-name="envelope-o" d="M950.857 91.428v438.857q-18.286-20.571-39.429-37.714-153.143-117.714-243.429-193.143-29.143-24.571-47.429-38.286t-49.429-27.714-58.571-14h-1.143q-27.429 0-58.571 14t-49.429 27.714-47.429 38.286q-90.286 75.429-243.429 193.143-21.143 17.143-39.429 37.714v-438.857q0-7.429 5.429-12.857t12.857-5.429h841.143q7.429 0 12.857 5.429t5.429 12.857zM950.857 692v14t-0.286 7.429-1.714 7.143-3.143 5.143-5.143 4.286-8 1.429h-841.143q-7.429 0-12.857-5.429t-5.429-12.857q0-96 84-162.286 110.286-86.857 229.143-181.143 3.429-2.857 20-16.857t26.286-21.429 25.429-18 28.857-15.714 24.571-5.143h1.143q11.429 0 24.571 5.143t28.857 15.714 25.429 18 26.286 21.429 20 16.857q118.857 94.286 229.143 181.143 30.857 24.571 57.429 66t26.571 75.143zM1024 713.143v-621.714q0-37.714-26.857-64.571t-64.571-26.857h-841.143q-37.714 0-64.571 26.857t-26.857 64.571v621.714q0 37.714 26.857 64.571t64.571 26.857h841.143q37.714 0 64.571-26.857t26.857-64.571z" />
<glyph unicode="&#xf004;" glyph-name="heart" d="M512 0q-14.857 0-25.143 10.286l-356.571 344q-5.714 4.571-15.714 14.857t-31.714 37.429-38.857 55.714-30.571 69.143-13.429 78.857q0 125.714 72.571 196.571t200.571 70.857q35.429 0 72.286-12.286t68.571-33.143 54.571-39.143 43.429-38.857q20.571 20.571 43.429 38.857t54.571 39.143 68.571 33.143 72.286 12.286q128 0 200.571-70.857t72.571-196.571q0-126.286-130.857-257.143l-356-342.857q-10.286-10.286-25.143-10.286z" />
<glyph unicode="&#xf007;" glyph-name="user" horiz-adv-x="805" d="M804.571 148q0-68.571-41.714-108.286t-110.857-39.714h-499.429q-69.143 0-110.857 39.714t-41.714 108.286q0 30.286 2 59.143t8 62.286 15.143 62 24.571 55.714 35.429 46.286 48.857 30.571 63.714 11.429q5.143 0 24-12.286t42.571-27.429 61.714-27.429 76.286-12.286 76.286 12.286 61.714 27.429 42.571 27.429 24 12.286q34.857 0 63.714-11.429t48.857-30.571 35.429-46.286 24.571-55.714 15.143-62 8-62.286 2-59.143zM621.714 658.286q0-90.857-64.286-155.143t-155.143-64.286-155.143 64.286-64.286 155.143 64.286 155.143 155.143 64.286 155.143-64.286 64.286-155.143z" />
<glyph unicode="&#xf00d;" glyph-name="close" horiz-adv-x="805" d="M741.714 195.428q0-22.857-16-38.857l-77.714-77.714q-16-16-38.857-16t-38.857 16l-168 168-168-168q-16-16-38.857-16t-38.857 16l-77.714 77.714q-16 16-16 38.857t16 38.857l168 168-168 168q-16 16-16 38.857t16 38.857l77.714 77.714q16 16 38.857 16t38.857-16l168-168 168 168q16 16 38.857 16t38.857-16l77.714-77.714q16-16 16-38.857t-16-38.857l-168-168 168-168q16-16 16-38.857z" />
<glyph unicode="&#xf00e;" glyph-name="search-plus" horiz-adv-x="951" d="M585.143 493.714v-36.571q0-7.429-5.429-12.857t-12.857-5.429h-128v-128q0-7.429-5.429-12.857t-12.857-5.429h-36.571q-7.429 0-12.857 5.429t-5.429 12.857v128h-128q-7.429 0-12.857 5.429t-5.429 12.857v36.571q0 7.429 5.429 12.857t12.857 5.429h128v128q0 7.429 5.429 12.857t12.857 5.429h36.571q7.429 0 12.857-5.429t5.429-12.857v-128h128q7.429 0 12.857-5.429t5.429-12.857zM658.286 475.428q0 105.714-75.143 180.857t-180.857 75.143-180.857-75.143-75.143-180.857 75.143-180.857 180.857-75.143 180.857 75.143 75.143 180.857zM950.857 0q0-30.286-21.429-51.714t-51.714-21.429q-30.857 0-51.429 21.714l-196 195.429q-102.286-70.857-228-70.857-81.714 0-156.286 31.714t-128.571 85.714-85.714 128.571-31.714 156.286 31.714 156.286 85.714 128.571 128.571 85.714 156.286 31.714 156.286-31.714 128.571-85.714 85.714-128.571 31.714-156.286q0-125.714-70.857-228l196-196q21.143-21.143 21.143-51.429z" />
<glyph unicode="&#xf010;" glyph-name="search-minus" horiz-adv-x="951" d="M585.143 493.714v-36.571q0-7.429-5.429-12.857t-12.857-5.429h-329.143q-7.429 0-12.857 5.429t-5.429 12.857v36.571q0 7.429 5.429 12.857t12.857 5.429h329.143q7.429 0 12.857-5.429t5.429-12.857zM658.286 475.428q0 105.714-75.143 180.857t-180.857 75.143-180.857-75.143-75.143-180.857 75.143-180.857 180.857-75.143 180.857 75.143 75.143 180.857zM950.857 0q0-30.286-21.429-51.714t-51.714-21.429q-30.857 0-51.429 21.714l-196 195.429q-102.286-70.857-228-70.857-81.714 0-156.286 31.714t-128.571 85.714-85.714 128.571-31.714 156.286 31.714 156.286 85.714 128.571 128.571 85.714 156.286 31.714 156.286-31.714 128.571-85.714 85.714-128.571 31.714-156.286q0-125.714-70.857-228l196-196q21.143-21.143 21.143-51.429z" />
<glyph unicode="&#xf015;" glyph-name="home" horiz-adv-x="951" d="M804.571 384v-274.286q0-14.857-10.857-25.714t-25.714-10.857h-219.429v219.429h-146.286v-219.429h-219.429q-14.857 0-25.714 10.857t-10.857 25.714v274.286q0 0.571 0.286 1.714t0.286 1.714l328.571 270.857 328.571-270.857q0.571-1.143 0.571-3.429zM932 423.428l-35.429-42.286q-4.571-5.143-12-6.286h-1.714q-7.429 0-12 4l-395.429 329.714-395.429-329.714q-6.857-4.571-13.714-4-7.429 1.143-12 6.286l-35.429 42.286q-4.571 5.714-4 13.429t6.286 12.286l410.857 342.286q18.286 14.857 43.429 14.857t43.429-14.857l139.429-116.571v111.429q0 8 5.143 13.143t13.143 5.143h109.714q8 0 13.143-5.143t5.143-13.143v-233.143l125.143-104q5.714-4.571 6.286-12.286t-4-13.429z" />
<glyph unicode="&#xf019;" glyph-name="download" horiz-adv-x="951" d="M731.429 182.857q0 14.857-10.857 25.714t-25.714 10.857-25.714-10.857-10.857-25.714 10.857-25.714 25.714-10.857 25.714 10.857 10.857 25.714zM877.714 182.857q0 14.857-10.857 25.714t-25.714 10.857-25.714-10.857-10.857-25.714 10.857-25.714 25.714-10.857 25.714 10.857 10.857 25.714zM950.857 310.857v-182.857q0-22.857-16-38.857t-38.857-16h-841.143q-22.857 0-38.857 16t-16 38.857v182.857q0 22.857 16 38.857t38.857 16h265.714l77.143-77.714q33.143-32 77.714-32t77.714 32l77.714 77.714h265.143q22.857 0 38.857-16t16-38.857zM765.143 636q9.714-23.429-8-40l-256-256q-10.286-10.857-25.714-10.857t-25.714 10.857l-256 256q-17.714 16.571-8 40 9.714 22.286 33.714 22.286h146.286v256q0 14.857 10.857 25.714t25.714 10.857h146.286q14.857 0 25.714-10.857t10.857-25.714v-256h146.286q24 0 33.714-22.286z" />
<glyph unicode="&#xf01e;" glyph-name="repeat" horiz-adv-x="878" d="M877.714 804.571v-256q0-14.857-10.857-25.714t-25.714-10.857h-256q-24 0-33.714 22.857-9.714 22.286 8 39.429l78.857 78.857q-84.571 78.286-199.429 78.286-59.429 0-113.429-23.143t-93.429-62.571-62.571-93.429-23.143-113.429 23.143-113.429 62.571-93.429 93.429-62.571 113.429-23.143q68 0 128.571 29.714t102.286 84q4 5.714 13.143 6.857 8 0 14.286-5.143l78.286-78.857q5.143-4.571 5.429-11.714t-4.286-12.857q-62.286-75.429-150.857-116.857t-186.857-41.429q-89.143 0-170.286 34.857t-140 93.714-93.714 140-34.857 170.286 34.857 170.286 93.714 140 140 93.714 170.286 34.857q84 0 162.571-31.714t139.714-89.429l74.286 73.714q16.571 17.714 40 8 22.286-9.714 22.286-33.714z" />
<glyph unicode="&#xf021;" glyph-name="refresh" horiz-adv-x="878" d="M863.429 347.428q0-2.857-0.571-4-36.571-153.143-153.143-248.286t-273.143-95.143q-83.429 0-161.429 31.429t-139.143 89.714l-73.714-73.714q-10.857-10.857-25.714-10.857t-25.714 10.857-10.857 25.714v256q0 14.857 10.857 25.714t25.714 10.857h256q14.857 0 25.714-10.857t10.857-25.714-10.857-25.714l-78.286-78.286q40.571-37.714 92-58.286t106.857-20.571q76.571 0 142.857 37.143t106.286 102.286q6.286 9.714 30.286 66.857 4.571 13.143 17.143 13.143h109.714q7.429 0 12.857-5.429t5.429-12.857zM877.714 804.571v-256q0-14.857-10.857-25.714t-25.714-10.857h-256q-14.857 0-25.714 10.857t-10.857 25.714 10.857 25.714l78.857 78.857q-84.571 78.286-199.429 78.286-76.571 0-142.857-37.143t-106.286-102.286q-6.286-9.714-30.286-66.857-4.571-13.143-17.143-13.143h-113.714q-7.429 0-12.857 5.429t-5.429 12.857v4q37.143 153.143 154.286 248.286t274.286 95.143q83.429 0 162.286-31.714t140-89.429l74.286 73.714q10.857 10.857 25.714 10.857t25.714-10.857 10.857-25.714z" />
<glyph unicode="&#xf055;" glyph-name="plus-circle" horiz-adv-x="878" d="M694.857 402.286v73.143q0 14.857-10.857 25.714t-25.714 10.857h-146.286v146.286q0 14.857-10.857 25.714t-25.714 10.857h-73.143q-14.857 0-25.714-10.857t-10.857-25.714v-146.286h-146.286q-14.857 0-25.714-10.857t-10.857-25.714v-73.143q0-14.857 10.857-25.714t25.714-10.857h146.286v-146.286q0-14.857 10.857-25.714t25.714-10.857h73.143q14.857 0 25.714 10.857t10.857 25.714v146.286h146.286q14.857 0 25.714 10.857t10.857 25.714zM877.714 438.857q0-119.429-58.857-220.286t-159.714-159.714-220.286-58.857-220.286 58.857-159.714 159.714-58.857 220.286 58.857 220.286 159.714 159.714 220.286 58.857 220.286-58.857 159.714-159.714 58.857-220.286z" />
<glyph unicode="&#xf056;" glyph-name="minus-circle" horiz-adv-x="878" d="M694.857 402.286v73.143q0 14.857-10.857 25.714t-25.714 10.857h-438.857q-14.857 0-25.714-10.857t-10.857-25.714v-73.143q0-14.857 10.857-25.714t25.714-10.857h438.857q14.857 0 25.714 10.857t10.857 25.714zM877.714 438.857q0-119.429-58.857-220.286t-159.714-159.714-220.286-58.857-220.286 58.857-159.714 159.714-58.857 220.286 58.857 220.286 159.714 159.714 220.286 58.857 220.286-58.857 159.714-159.714 58.857-220.286z" />
<glyph unicode="&#xf067;" glyph-name="plus" horiz-adv-x="805" d="M804.571 530.286v-109.714q0-22.857-16-38.857t-38.857-16h-237.714v-237.714q0-22.857-16-38.857t-38.857-16h-109.714q-22.857 0-38.857 16t-16 38.857v237.714h-237.714q-22.857 0-38.857 16t-16 38.857v109.714q0 22.857 16 38.857t38.857 16h237.714v237.714q0 22.857 16 38.857t38.857 16h109.714q22.857 0 38.857-16t16-38.857v-237.714h237.714q22.857 0 38.857-16t16-38.857z" />
<glyph unicode="&#xf068;" glyph-name="minus" horiz-adv-x="805" d="M804.571 530.286v-109.714q0-22.857-16-38.857t-38.857-16h-694.857q-22.857 0-38.857 16t-16 38.857v109.714q0 22.857 16 38.857t38.857 16h694.857q22.857 0 38.857-16t16-38.857z" />
<glyph unicode="&#xf06e;" glyph-name="eye" d="M950.857 402.286q-86.857 134.857-217.714 201.714 34.857-59.429 34.857-128.571 0-105.714-75.143-180.857t-180.857-75.143-180.857 75.143-75.143 180.857q0 69.143 34.857 128.571-130.857-66.857-217.714-201.714 76-117.143 190.571-186.571t248.286-69.429 248.286 69.429 190.571 186.571zM539.429 621.714q0 11.429-8 19.429t-19.429 8q-71.429 0-122.571-51.143t-51.143-122.571q0-11.429 8-19.429t19.429-8 19.429 8 8 19.429q0 49.143 34.857 84t84 34.857q11.429 0 19.429 8t8 19.429zM1024 402.286q0-19.429-11.429-39.429-80-131.429-215.143-210.571t-285.429-79.143-285.429 79.429-215.143 210.286q-11.429 20-11.429 39.429t11.429 39.429q80 130.857 215.143 210.286t285.429 79.429 285.429-79.429 215.143-210.286q11.429-20 11.429-39.429z" />
<glyph unicode="&#xf070;" glyph-name="eye-slash" d="M317.143 188l44.571 80.571q-49.714 36-77.714 90.857t-28 116q0 69.143 34.857 128.571-130.857-66.857-217.714-201.714 95.429-147.429 244-214.286zM539.429 621.714q0 11.429-8 19.429t-19.429 8q-71.429 0-122.571-51.143t-51.143-122.571q0-11.429 8-19.429t19.429-8 19.429 8 8 19.429q0 49.143 34.857 84t84 34.857q11.429 0 19.429 8t8 19.429zM746.857 730.857q0-4-0.571-5.143-60-107.429-180-323.429t-180.571-324l-28-50.857q-5.714-9.143-16-9.143-6.857 0-76.571 40-9.143 5.714-9.143 16 0 6.857 25.143 49.714-81.714 37.143-150.571 98.857t-119.143 140q-11.429 17.714-11.429 39.429t11.429 39.429q87.429 134.286 217.143 212t283.429 77.714q50.857 0 102.857-9.714l30.857 55.429q5.714 9.143 16 9.143 2.857 0 10.286-3.429t17.714-8.857 18.857-10.571 18-10.571 11.143-6.571q9.143-5.714 9.143-15.429zM768 475.428q0-79.429-45.143-144.857t-119.429-94l160 286.857q4.571-25.714 4.571-48zM1024 402.286q0-20-11.429-39.429-22.286-36.571-62.286-82.857-85.714-98.286-198.571-152.571t-239.714-54.286l42.286 75.429q121.143 10.286 224.286 78.286t172.286 175.429q-65.714 102.286-161.143 168l36 64q54.286-36.571 104.286-87.429t82.571-105.143q11.429-19.429 11.429-39.429z" />
<glyph unicode="&#xf08a;" glyph-name="heart-o" d="M950.857 610.286q0 46.286-12.286 81.714t-31.429 56.286-46.571 34-53.714 17.714-56 4.571-64-14.571-63.143-36.571-49.429-41.143-34.286-35.143q-10.286-12.571-28-12.571t-28 12.571q-13.714 16-34.286 35.143t-49.429 41.143-63.143 36.571-64 14.571-56-4.571-53.714-17.714-46.571-34-31.429-56.286-12.286-81.714q0-96 106.857-202.857l332-320 331.429 319.429q107.429 107.429 107.429 203.429zM1024 610.286q0-126.286-130.857-257.143l-356-342.857q-10.286-10.286-25.143-10.286t-25.143 10.286l-356.571 344q-5.714 4.571-15.714 14.857t-31.714 37.429-38.857 55.714-30.571 69.143-13.429 78.857q0 125.714 72.571 196.571t200.571 70.857q35.429 0 72.286-12.286t68.571-33.143 54.571-39.143 43.429-38.857q20.571 20.571 43.429 38.857t54.571 39.143 68.571 33.143 72.286 12.286q128 0 200.571-70.857t72.571-196.571z" />
<glyph unicode="&#xf08c;" glyph-name="linkedin-square" horiz-adv-x="878" d="M135.429 142.857h132v396.571h-132v-396.571zM276 661.714q-0.571 29.714-20.571 49.143t-53.143 19.429-54-19.429-20.857-49.143q0-29.143 20.286-48.857t52.857-19.714h0.571q33.714 0 54.286 19.714t20.571 48.857zM610.286 142.857h132v227.429q0 88-41.714 133.143t-110.286 45.143q-77.714 0-119.429-66.857h1.143v57.714h-132q1.714-37.714 0-396.571h132v221.714q0 21.714 4 32 8.571 20 25.714 34t42.286 14q66.286 0 66.286-89.714v-212zM877.714 713.143v-548.571q0-68-48.286-116.286t-116.286-48.286h-548.571q-68 0-116.286 48.286t-48.286 116.286v548.571q0 68 48.286 116.286t116.286 48.286h548.571q68 0 116.286-48.286t48.286-116.286z" />
<glyph unicode="&#xf090;" glyph-name="sign-in" horiz-adv-x="878" d="M676.571 438.857q0-14.857-10.857-25.714l-310.857-310.857q-10.857-10.857-25.714-10.857t-25.714 10.857-10.857 25.714v164.571h-256q-14.857 0-25.714 10.857t-10.857 25.714v219.429q0 14.857 10.857 25.714t25.714 10.857h256v164.571q0 14.857 10.857 25.714t25.714 10.857 25.714-10.857l310.857-310.857q10.857-10.857 10.857-25.714zM877.714 640v-402.286q0-68-48.286-116.286t-116.286-48.286h-182.857q-7.429 0-12.857 5.429t-5.429 12.857q0 2.286-0.571 11.429t-0.286 15.143 1.714 13.429 5.714 11.143 11.714 3.714h182.857q37.714 0 64.571 26.857t26.857 64.571v402.286q0 37.714-26.857 64.571t-64.571 26.857h-178.286t-6.571 0.571-6.571 1.714-4.571 3.143-4 5.143-1.143 7.714q0 2.286-0.571 11.429t-0.286 15.143 1.714 13.429 5.714 11.143 11.714 3.714h182.857q68 0 116.286-48.286t48.286-116.286z" />
<glyph unicode="&#xf095;" glyph-name="phone" horiz-adv-x="805" d="M804.571 242.286q0-15.429-5.714-40.286t-12-39.143q-12-28.571-69.714-60.571-53.714-29.143-106.286-29.143-15.429 0-30 2t-32.857 7.143-27.143 8.286-31.714 11.714-28 10.286q-56 20-100 47.429-73.143 45.143-151.143 123.143t-123.143 151.143q-27.429 44-47.429 100-1.714 5.143-10.286 28t-11.714 31.714-8.286 27.143-7.143 32.857-2 30q0 52.571 29.143 106.286 32 57.714 60.571 69.714 14.286 6.286 39.143 12t40.286 5.714q8 0 12-1.714 10.286-3.429 30.286-43.429 6.286-10.857 17.143-30.857t20-36.286 17.714-30.571q1.714-2.286 10-14.286t12.286-20.286 4-16.286q0-11.429-16.286-28.571t-35.429-31.429-35.429-30.286-16.286-26.286q0-5.143 2.857-12.857t4.857-11.714 8-13.714 6.571-10.857q43.429-78.286 99.429-134.286t134.286-99.429q1.143-0.571 10.857-6.571t13.714-8 11.714-4.857 12.857-2.857q10.286 0 26.286 16.286t30.286 35.429 31.429 35.429 28.571 16.286q8 0 16.286-4t20.286-12.286 14.286-10q14.286-8.571 30.571-17.714t36.286-20 30.857-17.143q40-20 43.429-30.286 1.714-4 1.714-12z" />
<glyph unicode="&#xf0c0;" glyph-name="group" horiz-adv-x="1097" d="M338.857 438.857q-92.571-2.857-151.429-73.143h-76.571q-46.857 0-78.857 23.143t-32 67.714q0 201.714 70.857 201.714 3.429 0 24.857-12t55.714-24.286 68-12.286q38.286 0 76 13.143-2.857-21.143-2.857-37.714 0-79.429 46.286-146.286zM950.857 74.857q0-68.571-41.714-108.286t-110.857-39.714h-499.429q-69.143 0-110.857 39.714t-41.714 108.286q0 30.286 2 59.143t8 62.286 15.143 62 24.571 55.714 35.429 46.286 48.857 30.571 63.714 11.429q5.714 0 24.571-12.286t41.714-27.429 61.143-27.429 77.143-12.286 77.143 12.286 61.143 27.429 41.714 27.429 24.571 12.286q34.857 0 63.714-11.429t48.857-30.571 35.429-46.286 24.571-55.714 15.143-62 8-62.286 2-59.143zM365.714 804.571q0-60.571-42.857-103.429t-103.429-42.857-103.429 42.857-42.857 103.429 42.857 103.429 103.429 42.857 103.429-42.857 42.857-103.429zM768 585.143q0-90.857-64.286-155.143t-155.143-64.286-155.143 64.286-64.286 155.143 64.286 155.143 155.143 64.286 155.143-64.286 64.286-155.143zM1097.143 456.571q0-44.571-32-67.714t-78.857-23.143h-76.571q-58.857 70.286-151.429 73.143 46.286 66.857 46.286 146.286 0 16.571-2.857 37.714 37.714-13.143 76-13.143 33.714 0 68 12.286t55.714 24.286 24.857 12q70.857 0 70.857-201.714zM1024 804.571q0-60.571-42.857-103.429t-103.429-42.857-103.429 42.857-42.857 103.429 42.857 103.429 103.429 42.857 103.429-42.857 42.857-103.429z" />
<glyph unicode="&#xf0e1;" glyph-name="linkedin" horiz-adv-x="878" d="M199.429 593.714v-566.286h-188.571v566.286h188.571zM211.429 768.571q0.571-41.714-28.857-69.714t-77.429-28h-1.143q-46.857 0-75.429 28t-28.571 69.714q0 42.286 29.429 70t76.857 27.714 76-27.714 29.143-70zM877.714 352v-324.571h-188v302.857q0 60-23.143 94t-72.286 34q-36 0-60.286-19.714t-36.286-48.857q-6.286-17.143-6.286-46.286v-316h-188q1.143 228 1.143 369.714t-0.571 169.143l-0.571 27.429h188v-82.286h-1.143q11.429 18.286 23.429 32t32.286 29.714 49.714 24.857 65.429 8.857q97.714 0 157.143-64.857t59.429-190z" />
<glyph unicode="&#xf0fe;" glyph-name="plus-square" horiz-adv-x="878" d="M731.429 402.286v73.143q0 14.857-10.857 25.714t-25.714 10.857h-182.857v182.857q0 14.857-10.857 25.714t-25.714 10.857h-73.143q-14.857 0-25.714-10.857t-10.857-25.714v-182.857h-182.857q-14.857 0-25.714-10.857t-10.857-25.714v-73.143q0-14.857 10.857-25.714t25.714-10.857h182.857v-182.857q0-14.857 10.857-25.714t25.714-10.857h73.143q14.857 0 25.714 10.857t10.857 25.714v182.857h182.857q14.857 0 25.714 10.857t10.857 25.714zM877.714 713.143v-548.571q0-68-48.286-116.286t-116.286-48.286h-548.571q-68 0-116.286 48.286t-48.286 116.286v548.571q0 68 48.286 116.286t116.286 48.286h548.571q68 0 116.286-48.286t48.286-116.286z" />
<glyph unicode="&#xf140;" glyph-name="bullseye" horiz-adv-x="878" d="M585.143 438.857q0-60.571-42.857-103.429t-103.429-42.857-103.429 42.857-42.857 103.429 42.857 103.429 103.429 42.857 103.429-42.857 42.857-103.429zM658.286 438.857q0 90.857-64.286 155.143t-155.143 64.286-155.143-64.286-64.286-155.143 64.286-155.143 155.143-64.286 155.143 64.286 64.286 155.143zM731.429 438.857q0-121.143-85.714-206.857t-206.857-85.714-206.857 85.714-85.714 206.857 85.714 206.857 206.857 85.714 206.857-85.714 85.714-206.857zM804.571 438.857q0 74.286-29.143 142t-78 116.571-116.571 78-142 29.143-142-29.143-116.571-78-78-116.571-29.143-142 29.143-142 78-116.571 116.571-78 142-29.143 142 29.143 116.571 78 78 116.571 29.143 142zM877.714 438.857q0-119.429-58.857-220.286t-159.714-159.714-220.286-58.857-220.286 58.857-159.714 159.714-58.857 220.286 58.857 220.286 159.714 159.714 220.286 58.857 220.286-58.857 159.714-159.714 58.857-220.286z" />
<glyph unicode="&#xf146;" glyph-name="minus-square" horiz-adv-x="878" d="M731.429 402.286v73.143q0 14.857-10.857 25.714t-25.714 10.857h-512q-14.857 0-25.714-10.857t-10.857-25.714v-73.143q0-14.857 10.857-25.714t25.714-10.857h512q14.857 0 25.714 10.857t10.857 25.714zM877.714 713.143v-548.571q0-68-48.286-116.286t-116.286-48.286h-548.571q-68 0-116.286 48.286t-48.286 116.286v548.571q0 68 48.286 116.286t116.286 48.286h548.571q68 0 116.286-48.286t48.286-116.286z" />
<glyph unicode="&#xf147;" glyph-name="minus-square-o" horiz-adv-x="805" d="M658.286 493.714v-36.571q0-8-5.143-13.143t-13.143-5.143h-475.429q-8 0-13.143 5.143t-5.143 13.143v36.571q0 8 5.143 13.143t13.143 5.143h475.429q8 0 13.143-5.143t5.143-13.143zM731.429 237.714v475.429q0 37.714-26.857 64.571t-64.571 26.857h-475.429q-37.714 0-64.571-26.857t-26.857-64.571v-475.429q0-37.714 26.857-64.571t64.571-26.857h475.429q37.714 0 64.571 26.857t26.857 64.571zM804.571 713.143v-475.429q0-68-48.286-116.286t-116.286-48.286h-475.429q-68 0-116.286 48.286t-48.286 116.286v475.429q0 68 48.286 116.286t116.286 48.286h475.429q68 0 116.286-48.286t48.286-116.286z" />
<glyph unicode="&#xf14e;" glyph-name="compass" horiz-adv-x="878" d="M365.714 329.143l146.286 73.143-146.286 73.143v-146.286zM585.143 666.857v-309.714l-292.571-146.286v309.714zM749.714 438.857q0 84.571-41.714 156t-113.143 113.143-156 41.714-156-41.714-113.143-113.143-41.714-156 41.714-156 113.143-113.143 156-41.714 156 41.714 113.143 113.143 41.714 156zM877.714 438.857q0-119.429-58.857-220.286t-159.714-159.714-220.286-58.857-220.286 58.857-159.714 159.714-58.857 220.286 58.857 220.286 159.714 159.714 220.286 58.857 220.286-58.857 159.714-159.714 58.857-220.286z" />
<glyph unicode="&#xf196;" glyph-name="plus-square-o" horiz-adv-x="805" d="M658.286 493.714v-36.571q0-8-5.143-13.143t-13.143-5.143h-201.143v-201.143q0-8-5.143-13.143t-13.143-5.143h-36.571q-8 0-13.143 5.143t-5.143 13.143v201.143h-201.143q-8 0-13.143 5.143t-5.143 13.143v36.571q0 8 5.143 13.143t13.143 5.143h201.143v201.143q0 8 5.143 13.143t13.143 5.143h36.571q8 0 13.143-5.143t5.143-13.143v-201.143h201.143q8 0 13.143-5.143t5.143-13.143zM731.429 237.714v475.429q0 37.714-26.857 64.571t-64.571 26.857h-475.429q-37.714 0-64.571-26.857t-26.857-64.571v-475.429q0-37.714 26.857-64.571t64.571-26.857h475.429q37.714 0 64.571 26.857t26.857 64.571zM804.571 713.143v-475.429q0-68-48.286-116.286t-116.286-48.286h-475.429q-68 0-116.286 48.286t-48.286 116.286v475.429q0 68 48.286 116.286t116.286 48.286h475.429q68 0 116.286-48.286t48.286-116.286z" />
<glyph unicode="&#xf1fb;" glyph-name="eyedropper" d="M970.286 897.143q53.714-53.714 53.714-129.429t-53.714-128.857l-128.571-127.429 59.429-59.429q5.714-5.714 5.714-13.143t-5.714-13.143l-120-120q-5.714-5.714-13.143-5.714t-13.143 5.714l-60 60-344.571-344.571q-21.143-21.143-51.429-21.143h-116l-146.286-73.143-36.571 36.571 73.143 146.286v116q0 30.286 21.143 51.429l344.571 344.571-60 60q-5.714 5.714-5.714 13.143t5.714 13.143l120 120q5.714 5.714 13.143 5.714t13.143-5.714l59.429-59.429 127.429 128.571q53.143 53.714 128.857 53.714t129.429-53.714zM292.571 109.714l329.143 329.143-109.714 109.714-329.143-329.143v-109.714h109.714z" />
<glyph unicode="&#xf21e;" glyph-name="heartbeat" d="M731.429 365.714h174.286q-2.857-3.429-5.714-6t-5.143-4.286l-1.714-2.286-356-342.857q-10.286-10.286-25.143-10.286t-25.143 10.286l-356.571 344q-2.857 1.143-12 11.429h210.857q12.571 0 22.571 7.714t12.857 19.714l40 160.571 108.571-381.143q3.429-11.429 13.143-18.857t22.286-7.429q12 0 21.714 7.429t13.143 18.857l83.429 277.143 32-64q10.286-20 32.571-20zM1024 610.286q0-82.857-58.857-171.429h-210.857l-63.429 126.286q-4.571 9.714-14.571 15.429t-20.857 4.571q-25.714-2.857-32-26.286l-73.714-245.714-112 392q-3.429 11.429-13.429 18.857t-22.571 7.429-22.286-7.714-12.571-19.714l-66.286-265.143h-241.714q-58.857 88.571-58.857 171.429 0 125.714 72.571 196.571t200.571 70.857q35.429 0 72.286-12.286t68.571-33.143 54.571-39.143 43.429-38.857q20.571 20.571 43.429 38.857t54.571 39.143 68.571 33.143 72.286 12.286q128 0 200.571-70.857t72.571-196.571z" />
<glyph unicode="&#xf26c;" glyph-name="television" horiz-adv-x="1097" d="M1024 237.714v548.571q0 7.429-5.429 12.857t-12.857 5.429h-914.286q-7.429 0-12.857-5.429t-5.429-12.857v-548.571q0-7.429 5.429-12.857t12.857-5.429h914.286q7.429 0 12.857 5.429t5.429 12.857zM1097.143 786.286v-548.571q0-37.714-26.857-64.571t-64.571-26.857h-420.571v-73.143h201.143q8 0 13.143-5.143t5.143-13.143v-36.571q0-8-5.143-13.143t-13.143-5.143h-475.429q-8 0-13.143 5.143t-5.143 13.143v36.571q0 8 5.143 13.143t13.143 5.143h201.143v73.143h-420.571q-37.714 0-64.571 26.857t-26.857 64.571v548.571q0 37.714 26.857 64.571t64.571 26.857h914.286q37.714 0 64.571-26.857t26.857-64.571z" />
</font>
</defs>
</svg>
